<?xml version="1.0" encoding="utf-8" standalone="no"?>
<!DOCTYPE svg PUBLIC "-//W3C//DTD SVG 1.1//EN"
  "http://www.w3.org/Graphics/SVG/1.1/DTD/svg11.dtd">
<svg xmlns:xlink="http://www.w3.org/1999/xlink" width="898.8055pt" height="429.16pt" viewBox="0 0 898.8055 429.16" xmlns="http://www.w3.org/2000/svg" version="1.1">
 <metadata>
  <rdf:RDF xmlns:dc="http://purl.org/dc/elements/1.1/" xmlns:cc="http://creativecommons.org/ns#" xmlns:rdf="http://www.w3.org/1999/02/22-rdf-syntax-ns#">
   <cc:Work>
    <dc:type rdf:resource="http://purl.org/dc/dcmitype/StillImage"/>
    <dc:format>image/svg+xml</dc:format>
    <dc:creator>
     <cc:Agent>
      <dc:title>Swarm Societies / Chromatic Field</dc:title>
     </cc:Agent>
    </dc:creator>
   </cc:Work>
  </rdf:RDF>
 </metadata>
 <defs>
  <style type="text/css">*{stroke-linejoin: round; stroke-linecap: butt}</style>
 </defs>
 <g id="figure_1">
  <g id="patch_1">
   <path d="M 0 429.16 
L 898.8055 429.16 
L 898.8055 0 
L 0 0 
z
" style="fill: #fffefc"/>
  </g>
  <g id="axes_1">
   <g id="patch_2">
    <path d="M 152.5975 306.72 
L 426.1975 306.72 
L 426.1975 116.64 
L 152.5975 116.64 
z
" style="fill: #fffefc"/>
   </g>
   <g id="matplotlib.axis_1">
    <g id="xtick_1">
     <g id="line2d_1">
      <path d="M 152.5975 306.72 
L 152.5975 116.64 
" clip-path="url(#p5c0bb1ee69)" style="fill: none; stroke: #dcd7e0; stroke-opacity: 0.55; stroke-width: 0.65; stroke-linecap: square"/>
     </g>
     <g id="line2d_2">
      <defs>
       <path id="m1f78c95e29" d="M 0 0 
L 0 3.5 
" style="stroke: #6f6a78; stroke-width: 0.8"/>
      </defs>
      <g>
       <use xlink:href="#m1f78c95e29" x="152.5975" y="306.72" style="fill: #6f6a78; stroke: #6f6a78; stroke-width: 0.8"/>
      </g>
     </g>
     <g id="text_1">
      <text style="font-size: 10px; font-family: 'DejaVu Sans'; text-anchor: middle; fill: #6f6a78" x="152.5975" y="321.317656" transform="rotate(-0 152.5975 321.317656)">0.0</text>
     </g>
    </g>
    <g id="xtick_2">
     <g id="line2d_3">
      <path d="M 205.723714 306.72 
L 205.723714 116.64 
" clip-path="url(#p5c0bb1ee69)" style="fill: none; stroke: #dcd7e0; stroke-opacity: 0.55; stroke-width: 0.65; stroke-linecap: square"/>
     </g>
     <g id="line2d_4">
      <g>
       <use xlink:href="#m1f78c95e29" x="205.723714" y="306.72" style="fill: #6f6a78; stroke: #6f6a78; stroke-width: 0.8"/>
      </g>
     </g>
     <g id="text_2">
      <text style="font-size: 10px; font-family: 'DejaVu Sans'; text-anchor: middle; fill: #6f6a78" x="205.723714" y="321.317656" transform="rotate(-0 205.723714 321.317656)">0.2</text>
     </g>
    </g>
    <g id="xtick_3">
     <g id="line2d_5">
      <path d="M 258.849927 306.72 
L 258.849927 116.64 
" clip-path="url(#p5c0bb1ee69)" style="fill: none; stroke: #dcd7e0; stroke-opacity: 0.55; stroke-width: 0.65; stroke-linecap: square"/>
     </g>
     <g id="line2d_6">
      <g>
       <use xlink:href="#m1f78c95e29" x="258.849927" y="306.72" style="fill: #6f6a78; stroke: #6f6a78; stroke-width: 0.8"/>
      </g>
     </g>
     <g id="text_3">
      <text style="font-size: 10px; font-family: 'DejaVu Sans'; text-anchor: middle; fill: #6f6a78" x="258.849927" y="321.317656" transform="rotate(-0 258.849927 321.317656)">0.4</text>
     </g>
    </g>
    <g id="xtick_4">
     <g id="line2d_7">
      <path d="M 311.976141 306.72 
L 311.976141 116.64 
" clip-path="url(#p5c0bb1ee69)" style="fill: none; stroke: #dcd7e0; stroke-opacity: 0.55; stroke-width: 0.65; stroke-linecap: square"/>
     </g>
     <g id="line2d_8">
      <g>
       <use xlink:href="#m1f78c95e29" x="311.976141" y="306.72" style="fill: #6f6a78; stroke: #6f6a78; stroke-width: 0.8"/>
      </g>
     </g>
     <g id="text_4">
      <text style="font-size: 10px; font-family: 'DejaVu Sans'; text-anchor: middle; fill: #6f6a78" x="311.976141" y="321.317656" transform="rotate(-0 311.976141 321.317656)">0.6</text>
     </g>
    </g>
    <g id="xtick_5">
     <g id="line2d_9">
      <path d="M 365.102354 306.72 
L 365.102354 116.64 
" clip-path="url(#p5c0bb1ee69)" style="fill: none; stroke: #dcd7e0; stroke-opacity: 0.55; stroke-width: 0.65; stroke-linecap: square"/>
     </g>
     <g id="line2d_10">
      <g>
       <use xlink:href="#m1f78c95e29" x="365.102354" y="306.72" style="fill: #6f6a78; stroke: #6f6a78; stroke-width: 0.8"/>
      </g>
     </g>
     <g id="text_5">
      <text style="font-size: 10px; font-family: 'DejaVu Sans'; text-anchor: middle; fill: #6f6a78" x="365.102354" y="321.317656" transform="rotate(-0 365.102354 321.317656)">0.8</text>
     </g>
    </g>
    <g id="xtick_6">
     <g id="line2d_11">
      <path d="M 418.228568 306.72 
L 418.228568 116.64 
" clip-path="url(#p5c0bb1ee69)" style="fill: none; stroke: #dcd7e0; stroke-opacity: 0.55; stroke-width: 0.65; stroke-linecap: square"/>
     </g>
     <g id="line2d_12">
      <g>
       <use xlink:href="#m1f78c95e29" x="418.228568" y="306.72" style="fill: #6f6a78; stroke: #6f6a78; stroke-width: 0.8"/>
      </g>
     </g>
     <g id="text_6">
      <text style="font-size: 10px; font-family: 'DejaVu Sans'; text-anchor: middle; fill: #6f6a78" x="418.228568" y="321.317656" transform="rotate(-0 418.228568 321.317656)">1.0</text>
     </g>
    </g>
    <g id="text_7">
     <text style="font-size: 11px; font-family: 'DejaVu Sans'; text-anchor: middle; fill: #161625" x="289.3975" y="336.078281" transform="rotate(-0 289.3975 336.078281)">Observed coverage</text>
    </g>
   </g>
   <g id="matplotlib.axis_2">
    <g id="ytick_1">
     <g id="line2d_13">
      <defs>
       <path id="mb76b431f55" d="M 0 0 
L -3.5 0 
" style="stroke: #6f6a78; stroke-width: 0.8"/>
      </defs>
      <g>
       <use xlink:href="#mb76b431f55" x="152.5975" y="150.363871" style="fill: #6f6a78; stroke: #6f6a78; stroke-width: 0.8"/>
      </g>
     </g>
     <g id="text_8">
      <text style="font-size: 10px; font-family: 'DejaVu Sans'; text-anchor: end; fill: #6f6a78" x="145.5975" y="154.16309" transform="rotate(-0 145.5975 154.16309)">Frozen prior</text>
     </g>
    </g>
    <g id="ytick_2">
     <g id="line2d_14">
      <g>
       <use xlink:href="#mb76b431f55" x="152.5975" y="211.68" style="fill: #6f6a78; stroke: #6f6a78; stroke-width: 0.8"/>
      </g>
     </g>
     <g id="text_9">
      <text style="font-size: 10px; font-family: 'DejaVu Sans'; text-anchor: end; fill: #6f6a78" x="145.5975" y="215.479219" transform="rotate(-0 145.5975 215.479219)">Private observations</text>
     </g>
    </g>
    <g id="ytick_3">
     <g id="line2d_15">
      <g>
       <use xlink:href="#mb76b431f55" x="152.5975" y="272.996129" style="fill: #6f6a78; stroke: #6f6a78; stroke-width: 0.8"/>
      </g>
     </g>
     <g id="text_10">
      <text style="font-size: 10px; font-family: 'DejaVu Sans'; text-anchor: end; fill: #6f6a78" x="145.5975" y="276.795348" transform="rotate(-0 145.5975 276.795348)">Pooled evidence reference</text>
     </g>
    </g>
   </g>
   <g id="line2d_16">
    <path d="M 380.865552 139.940129 
L 417.882694 139.940129 
" clip-path="url(#p5c0bb1ee69)" style="fill: none; stroke: #3534cf; stroke-width: 1.4; stroke-linecap: square"/>
   </g>
   <g id="line2d_17">
    <path d="M 380.865552 150.363871 
L 417.882694 150.363871 
" clip-path="url(#p5c0bb1ee69)" style="fill: none; stroke: #c93683; stroke-width: 1.4; stroke-linecap: square"/>
   </g>
   <g id="line2d_18">
    <path d="M 380.865552 160.787613 
L 417.882694 160.787613 
" clip-path="url(#p5c0bb1ee69)" style="fill: none; stroke: #f26a37; stroke-width: 1.4; stroke-linecap: square"/>
   </g>
   <g id="line2d_19">
    <path d="M 381.91182 201.256258 
L 395.400898 201.256258 
" clip-path="url(#p5c0bb1ee69)" style="fill: none; stroke: #3534cf; stroke-width: 1.4; stroke-linecap: square"/>
   </g>
   <g id="line2d_20">
    <path d="M 385.716432 211.68 
L 395.400898 211.68 
" clip-path="url(#p5c0bb1ee69)" style="fill: none; stroke: #c93683; stroke-width: 1.4; stroke-linecap: square"/>
   </g>
   <g id="line2d_21">
    <path d="M 382.603568 222.103742 
L 391.94216 222.103742 
" clip-path="url(#p5c0bb1ee69)" style="fill: none; stroke: #f26a37; stroke-width: 1.4; stroke-linecap: square"/>
   </g>
   <g id="line2d_22">
    <path d="M 384.32429 262.572387 
L 394.017403 262.572387 
" clip-path="url(#p5c0bb1ee69)" style="fill: none; stroke: #3534cf; stroke-width: 1.4; stroke-linecap: square"/>
   </g>
   <g id="line2d_23">
    <path d="M 384.32429 272.996129 
L 394.017403 272.996129 
" clip-path="url(#p5c0bb1ee69)" style="fill: none; stroke: #c93683; stroke-width: 1.4; stroke-linecap: square"/>
   </g>
   <g id="line2d_24">
    <path d="M 384.32429 283.419871 
L 394.017403 283.419871 
" clip-path="url(#p5c0bb1ee69)" style="fill: none; stroke: #f26a37; stroke-width: 1.4; stroke-linecap: square"/>
   </g>
   <g id="line2d_25">
    <path d="M 391.665461 306.72 
L 391.665461 116.64 
" clip-path="url(#p5c0bb1ee69)" style="fill: none; stroke-dasharray: 3.33,1.44; stroke-dashoffset: 0; stroke: #6f6a78; stroke-width: 0.9"/>
   </g>
   <g id="patch_3">
    <path d="M 152.5975 306.72 
L 152.5975 116.64 
" style="fill: none; stroke: #dcd7e0; stroke-width: 0.65; stroke-linejoin: miter; stroke-linecap: square"/>
   </g>
   <g id="patch_4">
    <path d="M 152.5975 306.72 
L 426.1975 306.72 
" style="fill: none; stroke: #dcd7e0; stroke-width: 0.65; stroke-linejoin: miter; stroke-linecap: square"/>
   </g>
   <g id="PathCollection_1">
    <defs>
     <path id="mc3db987a52" d="M 0 2.95804 
C 0.784481 2.95804 1.536938 2.646362 2.09165 2.09165 
C 2.646362 1.536938 2.95804 0.784481 2.95804 0 
C 2.95804 -0.784481 2.646362 -1.536938 2.09165 -2.09165 
C 1.536938 -2.646362 0.784481 -2.95804 0 -2.95804 
C -0.784481 -2.95804 -1.536938 -2.646362 -2.09165 -2.09165 
C -2.646362 -1.536938 -2.95804 -0.784481 -2.95804 0 
C -2.95804 0.784481 -2.646362 1.536938 -2.09165 2.09165 
C -1.536938 2.646362 -0.784481 2.95804 0 2.95804 
z
" style="stroke: #3534cf"/>
    </defs>
    <g clip-path="url(#p5c0bb1ee69)">
     <use xlink:href="#mc3db987a52" x="403.355995" y="139.940129" style="fill: #3534cf; stroke: #3534cf"/>
    </g>
   </g>
   <g id="PathCollection_2">
    <defs>
     <path id="m2fccd5f0a0" d="M 0 2.95804 
C 0.784481 2.95804 1.536938 2.646362 2.09165 2.09165 
C 2.646362 1.536938 2.95804 0.784481 2.95804 0 
C 2.95804 -0.784481 2.646362 -1.536938 2.09165 -2.09165 
C 1.536938 -2.646362 0.784481 -2.95804 0 -2.95804 
C -0.784481 -2.95804 -1.536938 -2.646362 -2.09165 -2.09165 
C -2.646362 -1.536938 -2.95804 -0.784481 -2.95804 0 
C -2.95804 0.784481 -2.646362 1.536938 -2.09165 2.09165 
C -1.536938 2.646362 -0.784481 2.95804 0 2.95804 
z
" style="stroke: #c93683"/>
    </defs>
    <g clip-path="url(#p5c0bb1ee69)">
     <use xlink:href="#m2fccd5f0a0" x="403.355995" y="150.363871" style="fill: #c93683; stroke: #c93683"/>
    </g>
   </g>
   <g id="PathCollection_3">
    <defs>
     <path id="m1946bb86f5" d="M 0 2.95804 
C 0.784481 2.95804 1.536938 2.646362 2.09165 2.09165 
C 2.646362 1.536938 2.95804 0.784481 2.95804 0 
C 2.95804 -0.784481 2.646362 -1.536938 2.09165 -2.09165 
C 1.536938 -2.646362 0.784481 -2.95804 0 -2.95804 
C -0.784481 -2.95804 -1.536938 -2.646362 -2.09165 -2.09165 
C -2.646362 -1.536938 -2.95804 -0.784481 -2.95804 0 
C -2.95804 0.784481 -2.646362 1.536938 -2.09165 2.09165 
C -1.536938 2.646362 -0.784481 2.95804 0 2.95804 
z
" style="stroke: #f26a37"/>
    </defs>
    <g clip-path="url(#p5c0bb1ee69)">
     <use xlink:href="#m1946bb86f5" x="403.355995" y="160.787613" style="fill: #f26a37; stroke: #f26a37"/>
    </g>
   </g>
   <g id="PathCollection_4">
    <g clip-path="url(#p5c0bb1ee69)">
     <use xlink:href="#mc3db987a52" x="388.829296" y="201.256258" style="fill: #3534cf; stroke: #3534cf"/>
    </g>
   </g>
   <g id="PathCollection_5">
    <g clip-path="url(#p5c0bb1ee69)">
     <use xlink:href="#m2fccd5f0a0" x="390.558665" y="211.68" style="fill: #c93683; stroke: #c93683"/>
    </g>
   </g>
   <g id="PathCollection_6">
    <g clip-path="url(#p5c0bb1ee69)">
     <use xlink:href="#m1946bb86f5" x="387.445801" y="222.103742" style="fill: #f26a37; stroke: #f26a37"/>
    </g>
   </g>
   <g id="PathCollection_7">
    <g clip-path="url(#p5c0bb1ee69)">
     <use xlink:href="#mc3db987a52" x="389.17517" y="262.572387" style="fill: #3534cf; stroke: #3534cf"/>
    </g>
   </g>
   <g id="PathCollection_8">
    <g clip-path="url(#p5c0bb1ee69)">
     <use xlink:href="#m2fccd5f0a0" x="389.17517" y="272.996129" style="fill: #c93683; stroke: #c93683"/>
    </g>
   </g>
   <g id="PathCollection_9">
    <g clip-path="url(#p5c0bb1ee69)">
     <use xlink:href="#m1946bb86f5" x="389.17517" y="283.419871" style="fill: #f26a37; stroke: #f26a37"/>
    </g>
   </g>
   <g id="text_11">
    <text style="font-size: 9px; font-family: 'DejaVu Sans'; text-anchor: middle; fill: #6f6a78" x="391.665461" y="110.676291" transform="rotate(-0 391.665461 110.676291)">Nominal 90%</text>
   </g>
   <g id="text_12">
    <text style="font-weight: 700; font-size: 11px; font-family: 'DejaVu Sans'; text-anchor: start; fill: #161625" x="152.5975" y="104.64" transform="rotate(-0 152.5975 104.64)">Observed coverage</text>
   </g>
  </g>
  <g id="axes_2">
   <g id="patch_5">
    <path d="M 612.2455 306.72 
L 885.8455 306.72 
L 885.8455 116.64 
L 612.2455 116.64 
z
" style="fill: #fffefc"/>
   </g>
   <g id="matplotlib.axis_3">
    <g id="xtick_7">
     <g id="line2d_26">
      <path d="M 612.2455 306.72 
L 612.2455 116.64 
" clip-path="url(#pea9b82aeaf)" style="fill: none; stroke: #dcd7e0; stroke-opacity: 0.55; stroke-width: 0.65; stroke-linecap: square"/>
     </g>
     <g id="line2d_27">
      <g>
       <use xlink:href="#m1f78c95e29" x="612.2455" y="306.72" style="fill: #6f6a78; stroke: #6f6a78; stroke-width: 0.8"/>
      </g>
     </g>
     <g id="text_13">
      <text style="font-size: 10px; font-family: 'DejaVu Sans'; text-anchor: middle; fill: #6f6a78" x="612.2455" y="321.317656" transform="rotate(-0 612.2455 321.317656)">0</text>
     </g>
    </g>
    <g id="xtick_8">
     <g id="line2d_28">
      <path d="M 652.949205 306.72 
L 652.949205 116.64 
" clip-path="url(#pea9b82aeaf)" style="fill: none; stroke: #dcd7e0; stroke-opacity: 0.55; stroke-width: 0.65; stroke-linecap: square"/>
     </g>
     <g id="line2d_29">
      <g>
       <use xlink:href="#m1f78c95e29" x="652.949205" y="306.72" style="fill: #6f6a78; stroke: #6f6a78; stroke-width: 0.8"/>
      </g>
     </g>
     <g id="text_14">
      <text style="font-size: 10px; font-family: 'DejaVu Sans'; text-anchor: middle; fill: #6f6a78" x="652.949205" y="321.317656" transform="rotate(-0 652.949205 321.317656)">1</text>
     </g>
    </g>
    <g id="xtick_9">
     <g id="line2d_30">
      <path d="M 693.65291 306.72 
L 693.65291 116.64 
" clip-path="url(#pea9b82aeaf)" style="fill: none; stroke: #dcd7e0; stroke-opacity: 0.55; stroke-width: 0.65; stroke-linecap: square"/>
     </g>
     <g id="line2d_31">
      <g>
       <use xlink:href="#m1f78c95e29" x="693.65291" y="306.72" style="fill: #6f6a78; stroke: #6f6a78; stroke-width: 0.8"/>
      </g>
     </g>
     <g id="text_15">
      <text style="font-size: 10px; font-family: 'DejaVu Sans'; text-anchor: middle; fill: #6f6a78" x="693.65291" y="321.317656" transform="rotate(-0 693.65291 321.317656)">2</text>
     </g>
    </g>
    <g id="xtick_10">
     <g id="line2d_32">
      <path d="M 734.356615 306.72 
L 734.356615 116.64 
" clip-path="url(#pea9b82aeaf)" style="fill: none; stroke: #dcd7e0; stroke-opacity: 0.55; stroke-width: 0.65; stroke-linecap: square"/>
     </g>
     <g id="line2d_33">
      <g>
       <use xlink:href="#m1f78c95e29" x="734.356615" y="306.72" style="fill: #6f6a78; stroke: #6f6a78; stroke-width: 0.8"/>
      </g>
     </g>
     <g id="text_16">
      <text style="font-size: 10px; font-family: 'DejaVu Sans'; text-anchor: middle; fill: #6f6a78" x="734.356615" y="321.317656" transform="rotate(-0 734.356615 321.317656)">3</text>
     </g>
    </g>
    <g id="xtick_11">
     <g id="line2d_34">
      <path d="M 775.06032 306.72 
L 775.06032 116.64 
" clip-path="url(#pea9b82aeaf)" style="fill: none; stroke: #dcd7e0; stroke-opacity: 0.55; stroke-width: 0.65; stroke-linecap: square"/>
     </g>
     <g id="line2d_35">
      <g>
       <use xlink:href="#m1f78c95e29" x="775.06032" y="306.72" style="fill: #6f6a78; stroke: #6f6a78; stroke-width: 0.8"/>
      </g>
     </g>
     <g id="text_17">
      <text style="font-size: 10px; font-family: 'DejaVu Sans'; text-anchor: middle; fill: #6f6a78" x="775.06032" y="321.317656" transform="rotate(-0 775.06032 321.317656)">4</text>
     </g>
    </g>
    <g id="xtick_12">
     <g id="line2d_36">
      <path d="M 815.764025 306.72 
L 815.764025 116.64 
" clip-path="url(#pea9b82aeaf)" style="fill: none; stroke: #dcd7e0; stroke-opacity: 0.55; stroke-width: 0.65; stroke-linecap: square"/>
     </g>
     <g id="line2d_37">
      <g>
       <use xlink:href="#m1f78c95e29" x="815.764025" y="306.72" style="fill: #6f6a78; stroke: #6f6a78; stroke-width: 0.8"/>
      </g>
     </g>
     <g id="text_18">
      <text style="font-size: 10px; font-family: 'DejaVu Sans'; text-anchor: middle; fill: #6f6a78" x="815.764025" y="321.317656" transform="rotate(-0 815.764025 321.317656)">5</text>
     </g>
    </g>
    <g id="xtick_13">
     <g id="line2d_38">
      <path d="M 856.46773 306.72 
L 856.46773 116.64 
" clip-path="url(#pea9b82aeaf)" style="fill: none; stroke: #dcd7e0; stroke-opacity: 0.55; stroke-width: 0.65; stroke-linecap: square"/>
     </g>
     <g id="line2d_39">
      <g>
       <use xlink:href="#m1f78c95e29" x="856.46773" y="306.72" style="fill: #6f6a78; stroke: #6f6a78; stroke-width: 0.8"/>
      </g>
     </g>
     <g id="text_19">
      <text style="font-size: 10px; font-family: 'DejaVu Sans'; text-anchor: middle; fill: #6f6a78" x="856.46773" y="321.317656" transform="rotate(-0 856.46773 321.317656)">6</text>
     </g>
    </g>
    <g id="text_20">
     <text style="font-size: 11px; font-family: 'DejaVu Sans'; text-anchor: middle; fill: #161625" x="749.0455" y="336.078281" transform="rotate(-0 749.0455 336.078281)">Mean interval width · resource units</text>
    </g>
   </g>
   <g id="matplotlib.axis_4">
    <g id="ytick_4">
     <g id="line2d_40">
      <g>
       <use xlink:href="#mb76b431f55" x="612.2455" y="150.363871" style="fill: #6f6a78; stroke: #6f6a78; stroke-width: 0.8"/>
      </g>
     </g>
     <g id="text_21">
      <text style="font-size: 10px; font-family: 'DejaVu Sans'; text-anchor: end; fill: #6f6a78" x="605.2455" y="154.16309" transform="rotate(-0 605.2455 154.16309)">Frozen prior</text>
     </g>
    </g>
    <g id="ytick_5">
     <g id="line2d_41">
      <g>
       <use xlink:href="#mb76b431f55" x="612.2455" y="211.68" style="fill: #6f6a78; stroke: #6f6a78; stroke-width: 0.8"/>
      </g>
     </g>
     <g id="text_22">
      <text style="font-size: 10px; font-family: 'DejaVu Sans'; text-anchor: end; fill: #6f6a78" x="605.2455" y="215.479219" transform="rotate(-0 605.2455 215.479219)">Private observations</text>
     </g>
    </g>
    <g id="ytick_6">
     <g id="line2d_42">
      <g>
       <use xlink:href="#mb76b431f55" x="612.2455" y="272.996129" style="fill: #6f6a78; stroke: #6f6a78; stroke-width: 0.8"/>
      </g>
     </g>
     <g id="text_23">
      <text style="font-size: 10px; font-family: 'DejaVu Sans'; text-anchor: end; fill: #6f6a78" x="605.2455" y="276.795348" transform="rotate(-0 605.2455 276.795348)">Pooled evidence reference</text>
     </g>
    </g>
   </g>
   <g id="line2d_43">
    <path d="M 870.280401 139.940129 
L 875.086116 139.940129 
" clip-path="url(#pea9b82aeaf)" style="fill: none; stroke: #3534cf; stroke-width: 1.4; stroke-linecap: square"/>
   </g>
   <g id="line2d_44">
    <path d="M 870.280401 150.363871 
L 875.086116 150.363871 
" clip-path="url(#pea9b82aeaf)" style="fill: none; stroke: #c93683; stroke-width: 1.4; stroke-linecap: square"/>
   </g>
   <g id="line2d_45">
    <path d="M 870.280401 160.787613 
L 875.086116 160.787613 
" clip-path="url(#pea9b82aeaf)" style="fill: none; stroke: #f26a37; stroke-width: 1.4; stroke-linecap: square"/>
   </g>
   <g id="line2d_46">
    <path d="M 660.252885 201.256258 
L 671.394197 201.256258 
" clip-path="url(#pea9b82aeaf)" style="fill: none; stroke: #3534cf; stroke-width: 1.4; stroke-linecap: square"/>
   </g>
   <g id="line2d_47">
    <path d="M 660.518204 211.68 
L 671.777117 211.68 
" clip-path="url(#pea9b82aeaf)" style="fill: none; stroke: #c93683; stroke-width: 1.4; stroke-linecap: square"/>
   </g>
   <g id="line2d_48">
    <path d="M 660.417854 222.103742 
L 671.597092 222.103742 
" clip-path="url(#pea9b82aeaf)" style="fill: none; stroke: #f26a37; stroke-width: 1.4; stroke-linecap: square"/>
   </g>
   <g id="line2d_49">
    <path d="M 659.898433 262.572387 
L 671.287388 262.572387 
" clip-path="url(#pea9b82aeaf)" style="fill: none; stroke: #3534cf; stroke-width: 1.4; stroke-linecap: square"/>
   </g>
   <g id="line2d_50">
    <path d="M 659.898433 272.996129 
L 671.287388 272.996129 
" clip-path="url(#pea9b82aeaf)" style="fill: none; stroke: #c93683; stroke-width: 1.4; stroke-linecap: square"/>
   </g>
   <g id="line2d_51">
    <path d="M 659.898433 283.419871 
L 671.287388 283.419871 
" clip-path="url(#pea9b82aeaf)" style="fill: none; stroke: #f26a37; stroke-width: 1.4; stroke-linecap: square"/>
   </g>
   <g id="patch_6">
    <path d="M 612.2455 306.72 
L 612.2455 116.64 
" style="fill: none; stroke: #dcd7e0; stroke-width: 0.65; stroke-linejoin: miter; stroke-linecap: square"/>
   </g>
   <g id="patch_7">
    <path d="M 612.2455 306.72 
L 885.8455 306.72 
" style="fill: none; stroke: #dcd7e0; stroke-width: 0.65; stroke-linejoin: miter; stroke-linecap: square"/>
   </g>
   <g id="PathCollection_10">
    <g clip-path="url(#pea9b82aeaf)">
     <use xlink:href="#mc3db987a52" x="872.666172" y="139.940129" style="fill: #3534cf; stroke: #3534cf"/>
    </g>
   </g>
   <g id="PathCollection_11">
    <g clip-path="url(#pea9b82aeaf)">
     <use xlink:href="#m2fccd5f0a0" x="872.666172" y="150.363871" style="fill: #c93683; stroke: #c93683"/>
    </g>
   </g>
   <g id="PathCollection_12">
    <g clip-path="url(#pea9b82aeaf)">
     <use xlink:href="#m1946bb86f5" x="872.666172" y="160.787613" style="fill: #f26a37; stroke: #f26a37"/>
    </g>
   </g>
   <g id="PathCollection_13">
    <g clip-path="url(#pea9b82aeaf)">
     <use xlink:href="#mc3db987a52" x="665.777721" y="201.256258" style="fill: #3534cf; stroke: #3534cf"/>
    </g>
   </g>
   <g id="PathCollection_14">
    <g clip-path="url(#pea9b82aeaf)">
     <use xlink:href="#m2fccd5f0a0" x="666.060107" y="211.68" style="fill: #c93683; stroke: #c93683"/>
    </g>
   </g>
   <g id="PathCollection_15">
    <g clip-path="url(#pea9b82aeaf)">
     <use xlink:href="#m1946bb86f5" x="665.965291" y="222.103742" style="fill: #f26a37; stroke: #f26a37"/>
    </g>
   </g>
   <g id="PathCollection_16">
    <g clip-path="url(#pea9b82aeaf)">
     <use xlink:href="#mc3db987a52" x="665.542769" y="262.572387" style="fill: #3534cf; stroke: #3534cf"/>
    </g>
   </g>
   <g id="PathCollection_17">
    <g clip-path="url(#pea9b82aeaf)">
     <use xlink:href="#m2fccd5f0a0" x="665.542769" y="272.996129" style="fill: #c93683; stroke: #c93683"/>
    </g>
   </g>
   <g id="PathCollection_18">
    <g clip-path="url(#pea9b82aeaf)">
     <use xlink:href="#m1946bb86f5" x="665.542769" y="283.419871" style="fill: #f26a37; stroke: #f26a37"/>
    </g>
   </g>
   <g id="text_24">
    <text style="font-weight: 700; font-size: 11px; font-family: 'DejaVu Sans'; text-anchor: start; fill: #161625" x="612.2455" y="104.64" transform="rotate(-0 612.2455 104.64)">Mean interval width · resource units</text>
   </g>
  </g>
  <g id="text_25">
   <text style="font-weight: 700; font-size: 19px; font-family: 'DejaVu Sans'; text-anchor: start; fill: #161625" x="31.9975" y="27.397031" transform="rotate(-0 31.9975 27.397031)">Are uncertainty intervals useful?</text>
  </g>
  <g id="text_26">
   <text style="font-size: 10.5px; font-family: 'DejaVu Sans'; text-anchor: start; fill: #6f6a78" x="31.9975" y="44.698359" transform="rotate(-0 31.9975 44.698359)">32 common uncapped probes at tick 128 · 90% predictive intervals · fixed-law evaluation</text>
  </g>
  <g id="text_27">
   <text style="font-size: 9.5px; font-family: 'DejaVu Sans'; text-anchor: start; fill: #6f6a78" x="31.9975" y="367.2" transform="rotate(-0 31.9975 367.2)">Dots: arena means. Lines: 95% arena bootstrap intervals. Coverage and width must be interpreted together.</text>
  </g>
  <g id="text_28">
   <text style="font-size: 9px; font-family: 'DejaVu Sans'; text-anchor: start; fill: #6f6a78" x="31.9975" y="386.64" transform="rotate(-0 31.9975 386.64)">Prior and pooled references are repeated by society for comparison; these copies are not independent evidence.</text>
  </g>
  <g id="legend_1">
   <g id="line2d_52">
    <defs>
     <path id="m7c86bb69b7" d="M 0 3 
C 0.795609 3 1.55874 2.683901 2.12132 2.12132 
C 2.683901 1.55874 3 0.795609 3 0 
C 3 -0.795609 2.683901 -1.55874 2.12132 -2.12132 
C 1.55874 -2.683901 0.795609 -3 0 -3 
C -0.795609 -3 -1.55874 -2.683901 -2.12132 -2.12132 
C -2.683901 -1.55874 -3 -0.795609 -3 0 
C -3 0.795609 -2.683901 1.55874 -2.12132 2.12132 
C -1.55874 2.683901 -0.795609 3 0 3 
z
" style="stroke: #3534cf"/>
    </defs>
    <g>
     <use xlink:href="#m7c86bb69b7" x="320.622656" y="406.297656" style="fill: #3534cf; stroke: #3534cf"/>
    </g>
   </g>
   <g id="text_29">
    <text style="font-size: 10px; font-family: 'DejaVu Sans'; text-anchor: start; fill: #161625" x="338.622656" y="409.797656" transform="rotate(-0 338.622656 409.797656)">Society 0</text>
   </g>
   <g id="line2d_53">
    <defs>
     <path id="mb5d77588bd" d="M 0 3 
C 0.795609 3 1.55874 2.683901 2.12132 2.12132 
C 2.683901 1.55874 3 0.795609 3 0 
C 3 -0.795609 2.683901 -1.55874 2.12132 -2.12132 
C 1.55874 -2.683901 0.795609 -3 0 -3 
C -0.795609 -3 -1.55874 -2.683901 -2.12132 -2.12132 
C -2.683901 -1.55874 -3 -0.795609 -3 0 
C -3 0.795609 -2.683901 1.55874 -2.12132 2.12132 
C -1.55874 2.683901 -0.795609 3 0 3 
z
" style="stroke: #c93683"/>
    </defs>
    <g>
     <use xlink:href="#mb5d77588bd" x="414.899219" y="406.297656" style="fill: #c93683; stroke: #c93683"/>
    </g>
   </g>
   <g id="text_30">
    <text style="font-size: 10px; font-family: 'DejaVu Sans'; text-anchor: start; fill: #161625" x="432.899219" y="409.797656" transform="rotate(-0 432.899219 409.797656)">Society 1</text>
   </g>
   <g id="line2d_54">
    <defs>
     <path id="m43bed1ac34" d="M 0 3 
C 0.795609 3 1.55874 2.683901 2.12132 2.12132 
C 2.683901 1.55874 3 0.795609 3 0 
C 3 -0.795609 2.683901 -1.55874 2.12132 -2.12132 
C 1.55874 -2.683901 0.795609 -3 0 -3 
C -0.795609 -3 -1.55874 -2.683901 -2.12132 -2.12132 
C -2.683901 -1.55874 -3 -0.795609 -3 0 
C -3 0.795609 -2.683901 1.55874 -2.12132 2.12132 
C -1.55874 2.683901 -0.795609 3 0 3 
z
" style="stroke: #f26a37"/>
    </defs>
    <g>
     <use xlink:href="#m43bed1ac34" x="509.175781" y="406.297656" style="fill: #f26a37; stroke: #f26a37"/>
    </g>
   </g>
   <g id="text_31">
    <text style="font-size: 10px; font-family: 'DejaVu Sans'; text-anchor: start; fill: #161625" x="527.175781" y="409.797656" transform="rotate(-0 527.175781 409.797656)">Society 2</text>
   </g>
  </g>
 </g>
 <defs>
  <clipPath id="p5c0bb1ee69">
   <rect x="152.5975" y="116.64" width="273.6" height="190.08"/>
  </clipPath>
  <clipPath id="pea9b82aeaf">
   <rect x="612.2455" y="116.64" width="273.6" height="190.08"/>
  </clipPath>
 </defs>
</svg>
