<?xml version="1.0" encoding="utf-8" standalone="no"?>
<!DOCTYPE svg PUBLIC "-//W3C//DTD SVG 1.1//EN"
  "http://www.w3.org/Graphics/SVG/1.1/DTD/svg11.dtd">
<svg xmlns:xlink="http://www.w3.org/1999/xlink" width="868.544823pt" height="419.042109pt" viewBox="0 0 868.544823 419.042109" xmlns="http://www.w3.org/2000/svg" version="1.1">
 <metadata>
  <rdf:RDF xmlns:dc="http://purl.org/dc/elements/1.1/" xmlns:cc="http://creativecommons.org/ns#" xmlns:rdf="http://www.w3.org/1999/02/22-rdf-syntax-ns#">
   <cc:Work>
    <dc:type rdf:resource="http://purl.org/dc/dcmitype/StillImage"/>
    <dc:format>image/svg+xml</dc:format>
    <dc:creator>
     <cc:Agent>
      <dc:title>Swarm Societies / Chromatic Field</dc:title>
     </cc:Agent>
    </dc:creator>
   </cc:Work>
  </rdf:RDF>
 </metadata>
 <defs>
  <style type="text/css">*{stroke-linejoin: round; stroke-linecap: butt}</style>
 </defs>
 <g id="figure_1">
  <g id="patch_1">
   <path d="M 0 419.042109 
L 868.544823 419.042109 
L 868.544823 0 
L 0 0 
z
" style="fill: #fffefc"/>
  </g>
  <g id="axes_1">
   <g id="patch_2">
    <path d="M 117.288 259.2 
L 334.955114 259.2 
L 334.955114 99.36 
L 117.288 99.36 
z
" style="fill: #fffefc"/>
   </g>
   <g id="matplotlib.axis_1">
    <g id="xtick_1">
     <g id="line2d_1">
      <path d="M 117.288 259.2 
L 117.288 99.36 
" clip-path="url(#p57a8ae4bd3)" style="fill: none; stroke: #dcd7e0; stroke-opacity: 0.65; stroke-width: 0.65; stroke-linecap: square"/>
     </g>
     <g id="line2d_2">
      <defs>
       <path id="m1f78c95e29" d="M 0 0 
L 0 3.5 
" style="stroke: #6f6a78; stroke-width: 0.8"/>
      </defs>
      <g>
       <use xlink:href="#m1f78c95e29" x="117.288" y="259.2" style="fill: #6f6a78; stroke: #6f6a78; stroke-width: 0.8"/>
      </g>
     </g>
     <g id="text_1">
      <text style="font-size: 10px; font-family: 'DejaVu Sans'; text-anchor: middle; fill: #6f6a78" x="117.288" y="273.797656" transform="rotate(-0 117.288 273.797656)">0.840</text>
     </g>
    </g>
    <g id="xtick_2">
     <g id="line2d_3">
      <path d="M 176.651758 259.2 
L 176.651758 99.36 
" clip-path="url(#p57a8ae4bd3)" style="fill: none; stroke: #dcd7e0; stroke-opacity: 0.65; stroke-width: 0.65; stroke-linecap: square"/>
     </g>
     <g id="line2d_4">
      <g>
       <use xlink:href="#m1f78c95e29" x="176.651758" y="259.2" style="fill: #6f6a78; stroke: #6f6a78; stroke-width: 0.8"/>
      </g>
     </g>
     <g id="text_2">
      <text style="font-size: 10px; font-family: 'DejaVu Sans'; text-anchor: middle; fill: #6f6a78" x="176.651758" y="273.797656" transform="rotate(-0 176.651758 273.797656)">0.843</text>
     </g>
    </g>
    <g id="xtick_3">
     <g id="line2d_5">
      <path d="M 236.015517 259.2 
L 236.015517 99.36 
" clip-path="url(#p57a8ae4bd3)" style="fill: none; stroke: #dcd7e0; stroke-opacity: 0.65; stroke-width: 0.65; stroke-linecap: square"/>
     </g>
     <g id="line2d_6">
      <g>
       <use xlink:href="#m1f78c95e29" x="236.015517" y="259.2" style="fill: #6f6a78; stroke: #6f6a78; stroke-width: 0.8"/>
      </g>
     </g>
     <g id="text_3">
      <text style="font-size: 10px; font-family: 'DejaVu Sans'; text-anchor: middle; fill: #6f6a78" x="236.015517" y="273.797656" transform="rotate(-0 236.015517 273.797656)">0.846</text>
     </g>
    </g>
    <g id="xtick_4">
     <g id="line2d_7">
      <path d="M 295.379275 259.2 
L 295.379275 99.36 
" clip-path="url(#p57a8ae4bd3)" style="fill: none; stroke: #dcd7e0; stroke-opacity: 0.65; stroke-width: 0.65; stroke-linecap: square"/>
     </g>
     <g id="line2d_8">
      <g>
       <use xlink:href="#m1f78c95e29" x="295.379275" y="259.2" style="fill: #6f6a78; stroke: #6f6a78; stroke-width: 0.8"/>
      </g>
     </g>
     <g id="text_4">
      <text style="font-size: 10px; font-family: 'DejaVu Sans'; text-anchor: middle; fill: #6f6a78" x="295.379275" y="273.797656" transform="rotate(-0 295.379275 273.797656)">0.849</text>
     </g>
    </g>
    <g id="text_5">
     <text style="font-size: 9px; font-family: 'DejaVu Sans'; text-anchor: middle; fill: #161625" x="226.121557" y="287.038594" transform="rotate(-0 226.121557 287.038594)">Consumption welfare / member-tick · zoomed axis</text>
    </g>
   </g>
   <g id="matplotlib.axis_2">
    <g id="ytick_1">
     <g id="line2d_9"/>
     <g id="text_6">
      <text style="font-size: 10px; font-family: 'DejaVu Sans'; text-anchor: end; fill: #161625" x="107.288" y="129.799219" transform="rotate(-0 107.288 129.799219)">Initial population</text>
     </g>
    </g>
    <g id="ytick_2">
     <g id="line2d_10"/>
     <g id="text_7">
      <text style="font-size: 10px; font-family: 'DejaVu Sans'; text-anchor: end; fill: #161625" x="107.288" y="183.079219" transform="rotate(-0 107.288 183.079219)">Fixed institutions</text>
     </g>
    </g>
    <g id="ytick_3">
     <g id="line2d_11"/>
     <g id="text_8">
      <text style="font-size: 10px; font-family: 'DejaVu Sans'; text-anchor: end; fill: #161625" x="107.288" y="236.359219" transform="rotate(-0 107.288 236.359219)">Coevolution</text>
     </g>
    </g>
   </g>
   <g id="line2d_12">
    <path d="M 179.855146 126 
L 311.751818 126 
" clip-path="url(#p57a8ae4bd3)" style="fill: none; stroke: #dcd7e0; stroke-width: 2.5; stroke-linecap: square"/>
   </g>
   <g id="line2d_13">
    <path d="M 244.036558 179.28 
L 314.120598 179.28 
" clip-path="url(#p57a8ae4bd3)" style="fill: none; stroke: #dcd7e0; stroke-width: 2.5; stroke-linecap: square"/>
   </g>
   <g id="line2d_14">
    <path d="M 260.515014 232.56 
L 312.032952 232.56 
" clip-path="url(#p57a8ae4bd3)" style="fill: none; stroke: #dcd7e0; stroke-width: 2.5; stroke-linecap: square"/>
   </g>
   <g id="patch_3">
    <path d="M 117.288 259.2 
L 334.955114 259.2 
" style="fill: none; stroke: #dcd7e0; stroke-width: 0.65; stroke-linejoin: miter; stroke-linecap: square"/>
   </g>
   <g id="PathCollection_1">
    <defs>
     <path id="mce56763ac0" d="M 0 3.872983 
C 1.027127 3.872983 2.012324 3.464901 2.738613 2.738613 
C 3.464901 2.012324 3.872983 1.027127 3.872983 0 
C 3.872983 -1.027127 3.464901 -2.012324 2.738613 -2.738613 
C 2.012324 -3.464901 1.027127 -3.872983 0 -3.872983 
C -1.027127 -3.872983 -2.012324 -3.464901 -2.738613 -2.738613 
C -3.464901 -2.012324 -3.872983 -1.027127 -3.872983 0 
C -3.872983 1.027127 -3.464901 2.012324 -2.738613 2.738613 
C -2.012324 3.464901 -1.027127 3.872983 0 3.872983 
z
" style="stroke: #161625"/>
    </defs>
    <g clip-path="url(#p57a8ae4bd3)">
     <use xlink:href="#mce56763ac0" x="311.751818" y="126" style="fill: #fffefc; stroke: #161625"/>
    </g>
   </g>
   <g id="PathCollection_2">
    <g clip-path="url(#p57a8ae4bd3)">
     <use xlink:href="#mce56763ac0" x="314.120598" y="179.28" style="fill: #fffefc; stroke: #161625"/>
    </g>
   </g>
   <g id="PathCollection_3">
    <g clip-path="url(#p57a8ae4bd3)">
     <use xlink:href="#mce56763ac0" x="312.032952" y="232.56" style="fill: #fffefc; stroke: #161625"/>
    </g>
   </g>
   <g id="text_9">
    <text style="font-weight: 700; font-size: 11px; font-family: 'DejaVu Sans'; text-anchor: start; fill: #161625" x="117.288" y="87.36" transform="rotate(-0 117.288 87.36)">A   Overall welfare with and without drought</text>
   </g>
   <g id="PathCollection_4">
    <defs>
     <path id="mb79bae2f63" d="M 0 3.354102 
C 0.889518 3.354102 1.742724 3.000693 2.371708 2.371708 
C 3.000693 1.742724 3.354102 0.889518 3.354102 0 
C 3.354102 -0.889518 3.000693 -1.742724 2.371708 -2.371708 
C 1.742724 -3.000693 0.889518 -3.354102 0 -3.354102 
C -0.889518 -3.354102 -1.742724 -3.000693 -2.371708 -2.371708 
C -3.000693 -1.742724 -3.354102 -0.889518 -3.354102 0 
C -3.354102 0.889518 -3.000693 1.742724 -2.371708 2.371708 
C -1.742724 3.000693 -0.889518 3.354102 0 3.354102 
z
" style="stroke: #161625"/>
    </defs>
    <g clip-path="url(#p57a8ae4bd3)">
     <use xlink:href="#mb79bae2f63" x="179.855146" y="126" style="fill: #161625; stroke: #161625"/>
    </g>
   </g>
   <g id="PathCollection_5">
    <g clip-path="url(#p57a8ae4bd3)">
     <use xlink:href="#mb79bae2f63" x="244.036558" y="179.28" style="fill: #161625; stroke: #161625"/>
    </g>
   </g>
   <g id="PathCollection_6">
    <g clip-path="url(#p57a8ae4bd3)">
     <use xlink:href="#mb79bae2f63" x="260.515014" y="232.56" style="fill: #161625; stroke: #161625"/>
    </g>
   </g>
   <g id="legend_1">
    <g id="line2d_15">
     <defs>
      <path id="m543ed307e9" d="M 0 3 
C 0.795609 3 1.55874 2.683901 2.12132 2.12132 
C 2.683901 1.55874 3 0.795609 3 0 
C 3 -0.795609 2.683901 -1.55874 2.12132 -2.12132 
C 1.55874 -2.683901 0.795609 -3 0 -3 
C -0.795609 -3 -1.55874 -2.683901 -2.12132 -2.12132 
C -2.683901 -1.55874 -3 -0.795609 -3 0 
C -3 0.795609 -2.683901 1.55874 -2.12132 2.12132 
C -1.55874 2.683901 -0.795609 3 0 3 
z
" style="stroke: #161625"/>
     </defs>
     <g>
      <use xlink:href="#m543ed307e9" x="131.934658" y="306.635256" style="fill: #161625; stroke: #161625"/>
     </g>
    </g>
    <g id="text_10">
     <text style="font-size: 10px; font-family: 'DejaVu Sans'; text-anchor: start; fill: #161625" x="149.934658" y="310.135256" transform="rotate(-0 149.934658 310.135256)">Drought</text>
    </g>
    <g id="line2d_16">
     <defs>
      <path id="m6e56593236" d="M 0 3 
C 0.795609 3 1.55874 2.683901 2.12132 2.12132 
C 2.683901 1.55874 3 0.795609 3 0 
C 3 -0.795609 2.683901 -1.55874 2.12132 -2.12132 
C 1.55874 -2.683901 0.795609 -3 0 -3 
C -0.795609 -3 -1.55874 -2.683901 -2.12132 -2.12132 
C -2.683901 -1.55874 -3 -0.795609 -3 0 
C -3 0.795609 -2.683901 1.55874 -2.12132 2.12132 
C -1.55874 2.683901 -0.795609 3 0 3 
z
" style="stroke: #161625"/>
     </defs>
     <g>
      <use xlink:href="#m6e56593236" x="220.587783" y="306.635256" style="fill: #fffefc; stroke: #161625"/>
     </g>
    </g>
    <g id="text_11">
     <text style="font-size: 10px; font-family: 'DejaVu Sans'; text-anchor: start; fill: #161625" x="238.587783" y="310.135256" transform="rotate(-0 238.587783 310.135256)">No drought</text>
    </g>
   </g>
  </g>
  <g id="axes_2">
   <g id="patch_4">
    <path d="M 548.268886 259.2 
L 765.936 259.2 
L 765.936 99.36 
L 548.268886 99.36 
z
" style="fill: #fffefc"/>
   </g>
   <g id="matplotlib.axis_3">
    <g id="xtick_5">
     <g id="line2d_17">
      <path d="M 588.875452 259.2 
L 588.875452 99.36 
" clip-path="url(#pf33edc2bb2)" style="fill: none; stroke: #dcd7e0; stroke-opacity: 0.65; stroke-width: 0.65; stroke-linecap: square"/>
     </g>
     <g id="line2d_18">
      <g>
       <use xlink:href="#m1f78c95e29" x="588.875452" y="259.2" style="fill: #6f6a78; stroke: #6f6a78; stroke-width: 0.8"/>
      </g>
     </g>
     <g id="text_12">
      <text style="font-size: 10px; font-family: 'DejaVu Sans'; text-anchor: middle; fill: #6f6a78" x="588.875452" y="273.797656" transform="rotate(-0 588.875452 273.797656)">−18</text>
     </g>
    </g>
    <g id="xtick_6">
     <g id="line2d_19">
      <path d="M 645.686323 259.2 
L 645.686323 99.36 
" clip-path="url(#pf33edc2bb2)" style="fill: none; stroke: #dcd7e0; stroke-opacity: 0.65; stroke-width: 0.65; stroke-linecap: square"/>
     </g>
     <g id="line2d_20">
      <g>
       <use xlink:href="#m1f78c95e29" x="645.686323" y="259.2" style="fill: #6f6a78; stroke: #6f6a78; stroke-width: 0.8"/>
      </g>
     </g>
     <g id="text_13">
      <text style="font-size: 10px; font-family: 'DejaVu Sans'; text-anchor: middle; fill: #6f6a78" x="645.686323" y="273.797656" transform="rotate(-0 645.686323 273.797656)">−12</text>
     </g>
    </g>
    <g id="xtick_7">
     <g id="line2d_21">
      <path d="M 702.497194 259.2 
L 702.497194 99.36 
" clip-path="url(#pf33edc2bb2)" style="fill: none; stroke: #dcd7e0; stroke-opacity: 0.65; stroke-width: 0.65; stroke-linecap: square"/>
     </g>
     <g id="line2d_22">
      <g>
       <use xlink:href="#m1f78c95e29" x="702.497194" y="259.2" style="fill: #6f6a78; stroke: #6f6a78; stroke-width: 0.8"/>
      </g>
     </g>
     <g id="text_14">
      <text style="font-size: 10px; font-family: 'DejaVu Sans'; text-anchor: middle; fill: #6f6a78" x="702.497194" y="273.797656" transform="rotate(-0 702.497194 273.797656)">−6</text>
     </g>
    </g>
    <g id="xtick_8">
     <g id="line2d_23">
      <path d="M 759.308065 259.2 
L 759.308065 99.36 
" clip-path="url(#pf33edc2bb2)" style="fill: none; stroke: #dcd7e0; stroke-opacity: 0.65; stroke-width: 0.65; stroke-linecap: square"/>
     </g>
     <g id="line2d_24">
      <g>
       <use xlink:href="#m1f78c95e29" x="759.308065" y="259.2" style="fill: #6f6a78; stroke: #6f6a78; stroke-width: 0.8"/>
      </g>
     </g>
     <g id="text_15">
      <text style="font-size: 10px; font-family: 'DejaVu Sans'; text-anchor: middle; fill: #6f6a78" x="759.308065" y="273.797656" transform="rotate(-0 759.308065 273.797656)">0</text>
     </g>
    </g>
    <g id="text_16">
     <text style="font-size: 9px; font-family: 'DejaVu Sans'; text-anchor: middle; fill: #161625" x="657.102443" y="287.038594" transform="rotate(-0 657.102443 287.038594)">Drought − no drought welfare × 1,000 · less negative is better</text>
    </g>
   </g>
   <g id="matplotlib.axis_4">
    <g id="ytick_4">
     <g id="line2d_25"/>
     <g id="text_17">
      <text style="font-size: 10px; font-family: 'DejaVu Sans'; text-anchor: end; fill: #161625" x="538.268886" y="129.799219" transform="rotate(-0 538.268886 129.799219)">Initial population</text>
     </g>
    </g>
    <g id="ytick_5">
     <g id="line2d_26"/>
     <g id="text_18">
      <text style="font-size: 10px; font-family: 'DejaVu Sans'; text-anchor: end; fill: #161625" x="538.268886" y="183.079219" transform="rotate(-0 538.268886 183.079219)">Fixed institutions</text>
     </g>
    </g>
    <g id="ytick_6">
     <g id="line2d_27"/>
     <g id="text_19">
      <text style="font-size: 10px; font-family: 'DejaVu Sans'; text-anchor: end; fill: #161625" x="538.268886" y="236.359219" transform="rotate(-0 538.268886 236.359219)">Coevolution</text>
     </g>
    </g>
   </g>
   <g id="line2d_28">
    <path d="M 759.308065 259.2 
L 759.308065 99.36 
" clip-path="url(#pf33edc2bb2)" style="fill: none; stroke-dasharray: 2.96,1.28; stroke-dashoffset: 0; stroke: #6f6a78; stroke-width: 0.8"/>
   </g>
   <g id="patch_5">
    <path d="M 548.268886 259.2 
L 765.936 259.2 
" style="fill: none; stroke: #dcd7e0; stroke-width: 0.65; stroke-linejoin: miter; stroke-linecap: square"/>
   </g>
   <g id="PathCollection_7">
    <defs>
     <path id="m283e637c7b" d="M 0 2.397916 
C 0.635935 2.397916 1.245909 2.145256 1.695582 1.695582 
C 2.145256 1.245909 2.397916 0.635935 2.397916 0 
C 2.397916 -0.635935 2.145256 -1.245909 1.695582 -1.695582 
C 1.245909 -2.145256 0.635935 -2.397916 0 -2.397916 
C -0.635935 -2.397916 -1.245909 -2.145256 -1.695582 -1.695582 
C -2.145256 -1.245909 -2.397916 -0.635935 -2.397916 0 
C -2.397916 0.635935 -2.145256 1.245909 -1.695582 1.695582 
C -1.245909 2.145256 -0.635935 2.397916 0 2.397916 
z
" style="stroke: #6f6a78; stroke-width: 0.8"/>
    </defs>
    <g clip-path="url(#pf33edc2bb2)">
     <use xlink:href="#m283e637c7b" x="558.318371" y="136.656" style="fill: #fffefc; stroke: #6f6a78; stroke-width: 0.8"/>
     <use xlink:href="#m283e637c7b" x="759.308065" y="134.718545" style="fill: #fffefc; stroke: #6f6a78; stroke-width: 0.8"/>
     <use xlink:href="#m283e637c7b" x="759.308065" y="132.781091" style="fill: #fffefc; stroke: #6f6a78; stroke-width: 0.8"/>
     <use xlink:href="#m283e637c7b" x="717.455419" y="130.843636" style="fill: #fffefc; stroke: #6f6a78; stroke-width: 0.8"/>
     <use xlink:href="#m283e637c7b" x="737.069886" y="128.906182" style="fill: #fffefc; stroke: #6f6a78; stroke-width: 0.8"/>
     <use xlink:href="#m283e637c7b" x="676.341475" y="126.968727" style="fill: #fffefc; stroke: #6f6a78; stroke-width: 0.8"/>
     <use xlink:href="#m283e637c7b" x="738.394013" y="125.031273" style="fill: #fffefc; stroke: #6f6a78; stroke-width: 0.8"/>
     <use xlink:href="#m283e637c7b" x="673.670399" y="123.093818" style="fill: #fffefc; stroke: #6f6a78; stroke-width: 0.8"/>
     <use xlink:href="#m283e637c7b" x="612.886067" y="121.156364" style="fill: #fffefc; stroke: #6f6a78; stroke-width: 0.8"/>
     <use xlink:href="#m283e637c7b" x="614.106418" y="119.218909" style="fill: #fffefc; stroke: #6f6a78; stroke-width: 0.8"/>
     <use xlink:href="#m283e637c7b" x="748.183122" y="117.281455" style="fill: #fffefc; stroke: #6f6a78; stroke-width: 0.8"/>
     <use xlink:href="#m283e637c7b" x="759.308065" y="115.344" style="fill: #fffefc; stroke: #6f6a78; stroke-width: 0.8"/>
    </g>
   </g>
   <g id="text_20">
    <text style="font-size: 10px; font-family: 'DejaVu Sans'; text-anchor: start; fill: #161625" x="772.466013" y="128.597656" transform="rotate(-0 772.466013 128.597656)">-6.666</text>
   </g>
   <g id="PathCollection_8">
    <g clip-path="url(#pf33edc2bb2)">
     <use xlink:href="#m283e637c7b" x="632.706325" y="189.936" style="fill: #fffefc; stroke: #6f6a78; stroke-width: 0.8"/>
     <use xlink:href="#m283e637c7b" x="759.308065" y="187.998545" style="fill: #fffefc; stroke: #6f6a78; stroke-width: 0.8"/>
     <use xlink:href="#m283e637c7b" x="759.308065" y="186.061091" style="fill: #fffefc; stroke: #6f6a78; stroke-width: 0.8"/>
     <use xlink:href="#m283e637c7b" x="703.790285" y="184.123636" style="fill: #fffefc; stroke: #6f6a78; stroke-width: 0.8"/>
     <use xlink:href="#m283e637c7b" x="759.308065" y="182.186182" style="fill: #fffefc; stroke: #6f6a78; stroke-width: 0.8"/>
     <use xlink:href="#m283e637c7b" x="725.695476" y="180.248727" style="fill: #fffefc; stroke: #6f6a78; stroke-width: 0.8"/>
     <use xlink:href="#m283e637c7b" x="756.463086" y="178.311273" style="fill: #fffefc; stroke: #6f6a78; stroke-width: 0.8"/>
     <use xlink:href="#m283e637c7b" x="729.149314" y="176.373818" style="fill: #fffefc; stroke: #6f6a78; stroke-width: 0.8"/>
     <use xlink:href="#m283e637c7b" x="649.622259" y="174.436364" style="fill: #fffefc; stroke: #6f6a78; stroke-width: 0.8"/>
     <use xlink:href="#m283e637c7b" x="720.399132" y="172.498909" style="fill: #fffefc; stroke: #6f6a78; stroke-width: 0.8"/>
     <use xlink:href="#m283e637c7b" x="759.308065" y="170.561455" style="fill: #fffefc; stroke: #6f6a78; stroke-width: 0.8"/>
     <use xlink:href="#m283e637c7b" x="754.217827" y="168.624" style="fill: #fffefc; stroke: #6f6a78; stroke-width: 0.8"/>
    </g>
   </g>
   <g id="text_21">
    <text style="font-size: 10px; font-family: 'DejaVu Sans'; text-anchor: start; fill: #161625" x="772.466013" y="181.877656" transform="rotate(-0 772.466013 181.877656)">-3.542</text>
   </g>
   <g id="PathCollection_9">
    <g clip-path="url(#pf33edc2bb2)">
     <use xlink:href="#m283e637c7b" x="694.064573" y="243.216" style="fill: #fffefc; stroke: #6f6a78; stroke-width: 0.8"/>
     <use xlink:href="#m283e637c7b" x="759.211295" y="241.278545" style="fill: #fffefc; stroke: #6f6a78; stroke-width: 0.8"/>
     <use xlink:href="#m283e637c7b" x="759.308065" y="239.341091" style="fill: #fffefc; stroke: #6f6a78; stroke-width: 0.8"/>
     <use xlink:href="#m283e637c7b" x="703.753375" y="237.403636" style="fill: #fffefc; stroke: #6f6a78; stroke-width: 0.8"/>
     <use xlink:href="#m283e637c7b" x="746.630439" y="235.466182" style="fill: #fffefc; stroke: #6f6a78; stroke-width: 0.8"/>
     <use xlink:href="#m283e637c7b" x="722.506474" y="233.528727" style="fill: #fffefc; stroke: #6f6a78; stroke-width: 0.8"/>
     <use xlink:href="#m283e637c7b" x="740.844556" y="231.591273" style="fill: #fffefc; stroke: #6f6a78; stroke-width: 0.8"/>
     <use xlink:href="#m283e637c7b" x="729.102613" y="229.653818" style="fill: #fffefc; stroke: #6f6a78; stroke-width: 0.8"/>
     <use xlink:href="#m283e637c7b" x="714.202134" y="227.716364" style="fill: #fffefc; stroke: #6f6a78; stroke-width: 0.8"/>
     <use xlink:href="#m283e637c7b" x="731.139024" y="225.778909" style="fill: #fffefc; stroke: #6f6a78; stroke-width: 0.8"/>
     <use xlink:href="#m283e637c7b" x="759.308065" y="223.841455" style="fill: #fffefc; stroke: #6f6a78; stroke-width: 0.8"/>
     <use xlink:href="#m283e637c7b" x="755.811449" y="221.904" style="fill: #fffefc; stroke: #6f6a78; stroke-width: 0.8"/>
    </g>
   </g>
   <g id="text_22">
    <text style="font-size: 10px; font-family: 'DejaVu Sans'; text-anchor: start; fill: #161625" x="772.466013" y="235.157656" transform="rotate(-0 772.466013 235.157656)">-2.604</text>
   </g>
   <g id="text_23">
    <text style="font-weight: 700; font-size: 11px; font-family: 'DejaVu Sans'; text-anchor: start; fill: #161625" x="548.268886" y="87.36" transform="rotate(-0 548.268886 87.36)">B   Drought effect by environment/schedule tuple</text>
   </g>
   <g id="PathCollection_10">
    <defs>
     <path id="m3585554a03" d="M -0 5.244044 
L 5.244044 0 
L 0 -5.244044 
L -5.244044 -0 
z
" style="stroke: #161625"/>
    </defs>
    <g clip-path="url(#pf33edc2bb2)">
     <use xlink:href="#m3585554a03" x="696.19578" y="126" style="fill: #161625; stroke: #161625"/>
    </g>
   </g>
   <g id="PathCollection_11">
    <g clip-path="url(#pf33edc2bb2)">
     <use xlink:href="#m3585554a03" x="725.772997" y="179.28" style="fill: #161625; stroke: #161625"/>
    </g>
   </g>
   <g id="PathCollection_12">
    <g clip-path="url(#pf33edc2bb2)">
     <use xlink:href="#m3585554a03" x="734.656838" y="232.56" style="fill: #161625; stroke: #161625"/>
    </g>
   </g>
   <g id="legend_2">
    <g id="line2d_29">
     <defs>
      <path id="m73ab4a9ead" d="M 0 3 
C 0.795609 3 1.55874 2.683901 2.12132 2.12132 
C 2.683901 1.55874 3 0.795609 3 0 
C 3 -0.795609 2.683901 -1.55874 2.12132 -2.12132 
C 1.55874 -2.683901 0.795609 -3 0 -3 
C -0.795609 -3 -1.55874 -2.683901 -2.12132 -2.12132 
C -2.683901 -1.55874 -3 -0.795609 -3 0 
C -3 0.795609 -2.683901 1.55874 -2.12132 2.12132 
C -1.55874 2.683901 -0.795609 3 0 3 
z
" style="stroke: #6f6a78"/>
     </defs>
     <g>
      <use xlink:href="#m73ab4a9ead" x="562.915544" y="291.634475" style="fill: #fffefc; stroke: #6f6a78"/>
     </g>
    </g>
    <g id="text_24">
     <text style="font-size: 10px; font-family: 'DejaVu Sans'; text-anchor: start; fill: #161625" x="580.915544" y="295.134475" transform="rotate(-0 580.915544 295.134475)">12 environment means</text>
    </g>
    <g id="line2d_30">
     <defs>
      <path id="md5d05bcaf0" d="M -0 4.242641 
L 4.242641 0 
L 0 -4.242641 
L -4.242641 -0 
z
" style="stroke: #161625; stroke-linejoin: miter"/>
     </defs>
     <g>
      <use xlink:href="#md5d05bcaf0" x="562.915544" y="306.635256" style="fill: #161625; stroke: #161625; stroke-linejoin: miter"/>
     </g>
    </g>
    <g id="text_25">
     <text style="font-size: 10px; font-family: 'DejaVu Sans'; text-anchor: start; fill: #161625" x="580.915544" y="310.135256" transform="rotate(-0 580.915544 310.135256)">Panel mean</text>
    </g>
   </g>
  </g>
  <g id="text_26">
   <text style="font-weight: 700; font-size: 18px; font-family: 'DejaVu Sans'; text-anchor: start; fill: #161625" x="12.96" y="26.637187" transform="rotate(-0 12.96 26.637187)">An exact counterfactual for drought damage</text>
  </g>
  <g id="text_27">
   <text style="font-size: 10px; font-family: 'DejaVu Sans'; text-anchor: start; fill: #6f6a78" x="12.96" y="44.318437" transform="rotate(-0 12.96 44.318437)">Same programs, initial conditions and exogenous draws · only the regeneration shock is disabled</text>
  </g>
  <g id="text_28">
   <text style="font-weight: 700; font-size: 11px; font-family: 'DejaVu Sans'; text-anchor: start; fill: #161625" x="12.96" y="362.88" transform="rotate(-0 12.96 362.88)">Coevolution − fixed-institution drought-effect contrast: +0.000938 welfare / member-tick.</text>
  </g>
  <g id="text_29">
   <text style="font-size: 9px; font-family: 'DejaVu Sans'; text-anchor: start; fill: #6f6a78" x="12.96" y="386.64" transform="rotate(-0 12.96 386.64)">Each environment mean groups 3 focal societies × 3 opponent panels. Dots show conditional variation, not confidence intervals.</text>
  </g>
  <g id="text_30">
   <text style="font-size: 9px; font-family: 'DejaVu Sans'; text-anchor: start; fill: #6f6a78" x="12.96" y="403.92" transform="rotate(-0 12.96 403.92)">One matched search pair; a less negative drought effect does not establish disturbance recognition or general adaptive learning.</text>
  </g>
 </g>
 <defs>
  <clipPath id="p57a8ae4bd3">
   <rect x="117.288" y="99.36" width="217.667114" height="159.84"/>
  </clipPath>
  <clipPath id="pf33edc2bb2">
   <rect x="548.268886" y="99.36" width="217.667114" height="159.84"/>
  </clipPath>
 </defs>
</svg>
